<?xml version="1.0" standalone="no"?>
<!DOCTYPE svg PUBLIC "-//W3C//DTD SVG 20010904//EN"
 "http://www.w3.org/TR/2001/REC-SVG-20010904/DTD/svg10.dtd">
<svg version="1.0" xmlns="http://www.w3.org/2000/svg"
 width="512.000000pt" height="512.000000pt" viewBox="0 0 512.000000 512.000000"
 preserveAspectRatio="xMidYMid meet">

<g transform="translate(0.000000,512.000000) scale(0.100000,-0.100000)"
fill="#000000" stroke="none">
<path d="M2335 4789 c-694 -71 -1326 -470 -1687 -1064 -436 -716 -436 -1614 0
-2330 280 -461 737 -817 1249 -974 239 -73 394 -95 663 -95 237 0 353 13 553
64 779 197 1411 823 1612 1596 54 207 69 331 69 574 0 185 -4 247 -22 350 -42
249 -99 424 -207 645 -318 647 -949 1109 -1665 1220 -127 19 -441 27 -565 14z
m375 -209 c873 -67 1600 -680 1815 -1530 43 -167 57 -292 57 -490 0 -197 -14
-316 -57 -490 -261 -1048 -1308 -1710 -2365 -1495 -1194 242 -1906 1472 -1520
2627 102 305 258 557 489 789 374 374 854 578 1406 598 22 0 101 -4 175 -9z"/>
<path d="M2501 4354 c-13 -9 -29 -32 -37 -50 -19 -45 -18 -148 2 -189 14 -31
64 -65 94 -65 7 0 27 7 45 16 44 21 65 67 65 143 0 106 -38 161 -110 161 -20
0 -46 -7 -59 -16z"/>
<path d="M1553 3616 c-77 -34 -73 -91 24 -320 91 -213 274 -586 363 -742 66
-114 184 -291 223 -334 65 -72 223 -184 412 -292 208 -118 808 -399 915 -428
78 -21 146 38 133 115 -14 81 -289 675 -420 910 -88 157 -216 345 -273 403
-60 59 -207 161 -355 247 -232 134 -868 431 -960 449 -17 3 -44 -1 -62 -8z
m467 -396 c288 -134 577 -297 706 -398 91 -71 187 -210 337 -487 64 -119 220
-441 248 -512 10 -27 29 -34 -231 87 -302 140 -622 326 -724 420 -73 67 -193
254 -329 510 -51 96 -198 404 -218 457 -10 28 -19 31 211 -77z"/>
<path d="M2513 2654 c-39 -19 -67 -74 -58 -114 8 -37 48 -77 85 -85 41 -9 95
19 114 60 9 18 16 38 16 45 0 30 -34 80 -65 94 -41 20 -52 20 -92 0z"/>
<path d="M814 2656 c-41 -18 -64 -52 -64 -96 0 -72 55 -110 161 -110 76 0 122
21 143 65 9 18 16 38 16 45 0 30 -34 80 -65 94 -41 20 -148 20 -191 2z"/>
<path d="M4113 2654 c-29 -15 -63 -65 -63 -94 0 -7 7 -27 16 -45 21 -44 67
-65 143 -65 106 0 161 38 161 110 0 73 -56 110 -162 110 -37 0 -76 -7 -95 -16z"/>
<path d="M2513 1054 c-42 -21 -63 -68 -63 -143 0 -106 38 -161 110 -161 72 0
110 55 110 161 0 76 -21 122 -65 143 -41 20 -52 20 -92 0z"/>
</g>
</svg>
