<svg version="1.2" xmlns="http://www.w3.org/2000/svg" viewBox="0 0 512 435" width="512" height="435"><style>.a{fill:#1cc8c8}</style><path class="a" d="m245.5 11.4c-3.6 1.7-35.8 30.1-113.5 100.1-59.7 53.8-109 98.7-109.7 99.9-1.7 2.9-1.6 9.1 0.2 12.6 2.9 5.6 5 6 30.9 6h23.6l0.2 93.2c0.3 87.5 0.4 93.5 2.1 96.9 2.4 4.7 7.1 9.5 12.1 12.2 4 2.2 4.8 2.2 49.6 2.2 45.1 0 45.5 0 49.6-2.2 2.3-1.2 5.8-4.1 7.8-6.5 6.7-7.8 6.6-6.9 6.6-79.5v-65.3h51 51v65.3c0 72.6-0.1 71.7 6.6 79.5 2 2.4 5.5 5.3 7.8 6.5 4.1 2.2 4.5 2.2 49.6 2.2 43 0 45.7-0.1 49.4-1.9 5-2.5 9.7-7.2 12.2-12.2 1.8-3.8 1.9-7.2 2.2-97.2l0.2-93.2h23.6c25.9 0 28-0.4 30.9-6 1.8-3.5 1.9-9.7 0.2-12.6-0.7-1.2-50-46.1-109.7-99.9-78.1-70.3-109.9-98.4-113.5-100.1-6.7-3.2-14.3-3.2-21 0z"/></svg>