<svg version="1.2" xmlns="http://www.w3.org/2000/svg" viewBox="0 0 512 512" width="512" height="512"><style></style><path  d="m36.4 61.1c-13.9 4.5-25.5 16.1-29 28.9-0.9 3-1.4 65-1.4 166.7 0 156.6 0.1 162.2 2.6 168.9 4.1 10.6 11 18.2 21.7 23.4l9.1 4.5h164.1 164.2l3.3-3.8c3.9-4.6 4.2-10.4 0.6-14.7l-2.5-3.3-162.9-0.7-162.7-0.7-4.9-3.1c-10.1-6.2-9.4 5.7-9.4-171 0-179.7-1-165.2 10.9-171.3 6-3 6.8-3 57.3-3 45.9 0 51.7 0.2 55.9 2.4 2.9 1.4 9.1 7.9 16.1 16.7 29 36.6 33.1 40.5 47.3 43.3 5.7 1.3 42.2 1.7 128.6 1.7 134.4 0 126.7-0.6 132.9 9.4l3.1 4.9 0.4 74.3c0.4 73.8 0.4 74.3 3.3 77.3 2 2.2 4.5 3.2 8.2 3.2 6.2 0 10.1-3.4 11.3-9.8 0.4-2.5 0.7-37.1 0.4-76.8l-0.4-72.3-3.6-7.5c-4.6-10.1-10.3-16.4-19.2-21.3l-7.2-3.9-127.8-0.7c-127.1-0.7-127.8-0.7-131.6-3.6-2.1-1.6-10.8-11.7-19.3-22.5-19.3-24.7-24.8-30.2-33.5-34.2-6.8-3.1-7.6-3.1-62.9-3.4-49.6-0.3-56.7 0-63 2z"/><path fill-rule="evenodd" d="m252.7 222.9c37.7 27.1 42.7 31.3 44.8 38.4 3.4 11.1 1.1 19.4-7.4 27.4-4.6 4.3-53.3 39.8-67.1 48.7-8.3 5.5-16.5 6.1-25.1 1.9-9.3-4.6-14-11.7-15.3-22.9-0.5-4.6-0.6-28.9-0.4-54.1 0.4-40 0.7-46.4 2.7-50 3.1-5.5 11.1-12.4 15.6-13.5 2.1-0.4 4.4-0.9 5-1.2 6.6-2.1 14.6 2.2 47.2 25.3zm-46.2-1.4c-1.2 1.2-1.6 14-1.6 48.3 0 39.3 0.2 46.9 2 48.4 1.6 1.3 7.5-2.5 34.2-21.6 33.2-23.7 35.9-26 34.6-28-0.4-0.7-14.3-11-30.7-22.8-38.1-27.3-36.5-26.4-38.5-24.3z"/><path fill-rule="evenodd" d="m411 288.8c23.2 6 42.4 25.4 48.5 48.7 4.5 17 1 37.9-8.6 52.7l-2.2 3.4 25.2 25.2c23 23.1 25.1 25.6 25.1 29.4-0.1 4.6-1.7 7.3-5.8 9.5-5.6 3-8.7 0.7-34.1-24.6l-24.6-24.6-9.2 4.7c-5.2 2.6-13.4 5.6-18.4 6.6-44.7 9.3-86.5-31.4-78.7-76.9 4.2-25.6 25-48.2 50-54.2 8.8-2.1 24.5-2.1 32.8 0.1zm-31.3 20.9c-32.8 11.7-42.3 53-17.7 77 22.9 22.5 60.5 15.9 74.7-13.1 3.2-6.5 3.5-8.5 3.5-19.4 0-11-0.3-12.8-3.7-20-4.7-10-12.3-17.5-22.3-22.3-9.9-4.7-24.9-5.7-34.5-2.2z"/></svg>