<?xml version="1.0" standalone="no"?>
<!DOCTYPE svg PUBLIC "-//W3C//DTD SVG 20010904//EN"
 "http://www.w3.org/TR/2001/REC-SVG-20010904/DTD/svg10.dtd">
<svg version="1.0" xmlns="http://www.w3.org/2000/svg"
 width="512.000000pt" height="164.000000pt" viewBox="0 0 512.000000 164.000000"
 preserveAspectRatio="xMidYMid meet">

<g transform="translate(0.000000,164.000000) scale(0.100000,-0.100000)"
fill="#000000" stroke="none">
<path d="M3422 698 c-9 -9 -12 -80 -12 -259 0 -267 2 -278 54 -265 31 8 36 29
36 156 0 118 10 144 60 155 39 9 67 -1 82 -28 7 -12 15 -78 18 -146 4 -103 8
-126 23 -135 12 -8 22 -8 35 0 14 10 17 30 20 145 3 158 -10 209 -61 235 -39
21 -105 14 -146 -15 l-31 -22 0 70 c0 88 -12 121 -43 121 -13 0 -28 -5 -35
-12z"/>
<path d="M4782 698 c-7 -7 -12 -43 -12 -90 l0 -77 -42 19 c-78 36 -149 21
-205 -43 -87 -100 -55 -275 61 -328 54 -25 83 -24 138 4 43 22 46 22 57 5 14
-23 43 -23 64 0 15 16 17 49 17 251 0 141 -4 240 -10 252 -12 21 -50 25 -68 7z
m-78 -218 c90 -34 84 -199 -7 -229 -99 -33 -176 90 -117 187 29 47 73 62 124
42z"/>
<path d="M4326 684 c-19 -18 -20 -28 -6 -55 12 -22 59 -26 78 -7 26 26 1 78
-38 78 -10 0 -26 -7 -34 -16z"/>
<path d="M3822 674 c-26 -18 -27 -32 -7 -76 8 -18 49 -116 91 -218 42 -102 82
-191 90 -199 7 -8 22 -11 37 -7 21 5 38 38 122 232 104 244 111 274 56 274
-16 0 -33 -6 -38 -12 -5 -7 -38 -88 -74 -180 -35 -91 -66 -165 -69 -163 -4 2
-39 81 -79 175 -41 94 -81 175 -91 180 -11 6 -24 4 -38 -6z"/>
<path d="M2792 634 c-14 -9 -22 -26 -22 -42 0 -23 -6 -30 -32 -37 -28 -8 -33
-15 -33 -40 0 -26 4 -30 32 -33 l31 -3 4 -130 c3 -129 3 -131 31 -155 51 -43
152 -23 145 29 -2 17 -12 23 -43 27 l-40 5 0 110 0 110 40 5 c37 5 40 8 40 35
0 27 -4 31 -42 39 -38 9 -43 13 -43 37 0 25 -22 59 -38 59 -4 0 -18 -7 -30
-16z"/>
<path d="M2370 559 c-31 -13 -78 -56 -95 -89 -34 -68 -24 -178 22 -238 28 -37
92 -71 134 -72 14 0 46 10 71 23 43 22 46 22 57 5 14 -22 44 -23 65 -2 13 13
16 44 16 184 0 140 -3 171 -16 184 -21 22 -50 20 -67 -4 -14 -20 -14 -20 -52
0 -42 21 -95 25 -135 9z m114 -79 c90 -34 84 -199 -7 -229 -99 -33 -176 90
-117 187 29 47 73 62 124 42z"/>
<path d="M3123 556 c-43 -20 -90 -71 -104 -113 -7 -21 -9 -63 -6 -100 9 -116
76 -178 192 -178 79 0 130 28 130 70 0 37 -23 43 -72 20 -43 -21 -92 -14 -130
19 -22 19 -27 33 -31 82 -4 54 -1 63 23 92 35 41 83 51 136 26 30 -13 45 -15
57 -7 25 15 21 53 -9 75 -35 26 -141 34 -186 14z"/>
<path d="M4332 548 c-17 -17 -17 -349 0 -366 19 -19 46 -14 63 12 23 35 18
342 -5 356 -21 13 -44 12 -58 -2z"/>
</g>
</svg>
