<svg version="1.2" xmlns="http://www.w3.org/2000/svg" viewBox="0 0 512 512" width="512" height="512"><style>.a{fill:#fff}</style><path fill-rule="evenodd" class="a" d="m291.5 2.4c56.9 8.4 106.3 33.3 146.2 73.7 13 13.1 22.3 24.5 31.5 38.5 21.9 33 35.1 68.3 41 109.9 1.7 11.8 1.7 51.2 0 63-7.8 54.4-30.1 102.8-65 140.6-48.2 52.3-109.9 80.9-180.2 83.5-99.9 3.9-192.8-51.4-238.1-141.6-39.6-78.8-35-174.7 11.9-249.3 42.6-67.8 112.7-111.3 192.7-119.6 12.2-1.3 47.7-0.5 60 1.3zm-111 26.1c-24.5 8.2-41.5 16.7-62 31-51.6 36.1-87 91.1-98.5 153-17 92.2 21.6 186.3 98.5 240 68.7 48 155.6 56.7 233.2 23.4 94.3-40.4 152.7-139.2 143.2-241.9-7.9-86.2-62.2-161.9-141.2-197.1-22.8-10.2-50.9-17.5-75.7-19.8-33-3.1-65.7 0.8-97.5 11.4z"/><path fill-rule="evenodd" class="a" d="m302.5 164.7c2.2 8.5 2.2 86.2 0 94.8-6.7 25.6-32.9 41.5-57.8 35-17.3-4.5-30.7-17.8-35.2-35-2.2-8.6-2.2-86.3 0-94.8 4.5-17.1 17.7-30.6 34.6-35.1 25.1-6.8 51.7 9.2 58.4 35.1zm-54-19.8c-9.2 2.4-17.3 9-21.5 17.6l-2.5 5v44.5c0 44.2 0 44.5 2.3 49 3.5 7.2 7.5 11.4 14.4 15.1 5.8 3.1 7 3.4 14.8 3.3 7.2 0 9.3-0.4 13.6-2.6 7.5-3.9 10.7-7 14.5-14l3.4-6.3v-89l-3.4-6.3c-3.8-6.9-8.1-11-15-14.3-4.8-2.2-15.7-3.3-20.6-2z"/><path class="a" d="m178.3 242.6c-2.5 2.5-2.6 2.9-2 10.7 1.1 14.2 5.2 26.6 12.7 38 11.9 18.3 30.9 31.2 52 35.1l6.5 1.2 0.3 20.2 0.2 20.2h-13.5c-13.1 0-13.7 0.1-16 2.5-1.6 1.5-2.5 3.6-2.5 5.5 0 1.9 0.9 4 2.5 5.5l2.4 2.5h35.1 35.1l2.4-2.5c1.6-1.5 2.5-3.6 2.5-5.5 0-1.9-0.9-4-2.5-5.5-2.3-2.4-2.9-2.5-16-2.5h-13.5l0.2-20.2 0.3-20.2 6.5-1.2c32.4-6.1 57.2-31.1 63.6-64.2 2.2-11.4 1.9-16.8-1.1-19.7-3.2-3.3-7.8-3.3-11 0-2 1.9-2.5 3.5-2.5 7.2-0.1 21.9-14.7 44.9-35 55.1-11 5.5-20.7 7.6-32.6 6.9-16.3-0.9-29.8-7.1-42-19.3-11.1-11.1-18.3-27.8-18.4-42.7 0-3.7-0.5-5.3-2.5-7.2-3.3-3.4-7.8-3.3-11.2 0.1z"/></svg>