<svg version="1.2" xmlns="http://www.w3.org/2000/svg" viewBox="0 0 512 512" width="512" height="512"><style>.a{fill:#1cc8c8}</style><path class="a" d="m247.6 26.4c-2.1 0.8-5.1 2.7-6.7 4.2-4.9 4.7-5.9 8.1-5.9 20.6v11.5l-8.7 1.7c-59.7 11.7-106.9 58.3-120.6 119.1-1.8 8.1-2.1 14-2.7 59.5-0.8 53.8-0.9 55.8-6.5 76.7-3.8 14.5-10.3 29.8-16.6 39.3-7.5 11.4-20.3 26.4-29.5 34.7l-7.4 6.8v19.7 19.8h212 212v-19.8-19.7l-13.8-14c-21.8-22.3-31.4-37.9-38.6-62.7-6.6-23-7.6-32.9-7.7-82.3 0-37.2-0.5-49.5-2.1-51.1-0.4-0.3-3.2-1.2-6.3-2-8.9-2.3-22.4-8.5-30.6-14-29.9-19.8-47.9-53.5-47.9-89.5v-8.7l-8.7-3.7c-7.2-3-25.6-8.2-35.9-10.1-2.1-0.4-2.2-1-2.5-12.1-0.4-10.3-0.7-12.3-2.8-15.6-4.8-7.7-14.4-11.3-22.5-8.3z"/><path class="a" d="m218.5 458.2c1.1 5.2 5.3 13 9.3 17.2 20.2 21.1 55.4 12.7 63.6-15.2l1.5-5.2h-37.5-37.6z"/></svg>