<?xml version="1.0" standalone="no"?>
<!DOCTYPE svg PUBLIC "-//W3C//DTD SVG 20010904//EN"
 "http://www.w3.org/TR/2001/REC-SVG-20010904/DTD/svg10.dtd">
<svg version="1.0" xmlns="http://www.w3.org/2000/svg"
 width="512.000000pt" height="512.000000pt" viewBox="0 0 512.000000 512.000000"
 preserveAspectRatio="xMidYMid meet">

<g transform="translate(0.000000,512.000000) scale(0.100000,-0.100000)"
fill="#000000" stroke="none">
<path d="M1055 4243 c-448 -62 -787 -423 -811 -863 -5 -87 -3 -98 18 -134 42
-71 135 -97 208 -57 45 24 80 89 80 150 1 268 219 529 488 587 101 21 2945 21
3046 -1 228 -48 424 -246 472 -474 12 -62 14 -200 12 -934 -3 -861 -3 -862
-25 -927 -53 -154 -165 -288 -301 -358 -148 -77 -27 -72 -1682 -72 -1633 0
-1534 -4 -1664 62 -205 103 -324 283 -346 525 -8 90 -21 118 -74 157 -38 29
-124 29 -162 0 -61 -45 -69 -67 -67 -177 6 -388 292 -740 693 -854 62 -17 141
-18 1620 -18 l1555 0 78 23 c160 46 274 111 396 227 128 122 218 273 263 445
l23 85 0 915 0 915 -23 85 c-92 334 -342 583 -674 672 l-83 23 -1505 1 c-828
1 -1518 -1 -1535 -3z"/>
<path d="M2016 3336 c-84 -31 -148 -105 -166 -189 -7 -37 -10 -234 -8 -628 3
-558 4 -575 24 -619 45 -98 126 -149 236 -150 l68 0 589 294 c516 259 593 300
624 337 84 98 87 228 7 329 -29 36 -96 73 -624 337 -546 273 -596 296 -651
300 -37 2 -75 -2 -99 -11z m645 -496 c339 -170 559 -286 557 -293 -4 -14
-1095 -566 -1120 -566 -17 -1 -18 32 -18 562 0 498 2 577 17 577 2 0 255 -126
564 -280z"/>
<path d="M319 2988 c-20 -11 -46 -38 -58 -59 -21 -37 -22 -46 -19 -393 3 -343
4 -356 24 -383 66 -88 193 -88 256 -1 23 33 23 35 26 382 3 333 2 350 -18 390
-38 79 -136 108 -211 64z"/>
</g>
</svg>
