<?xml version="1.0" standalone="no"?>
<!DOCTYPE svg PUBLIC "-//W3C//DTD SVG 20010904//EN"
 "http://www.w3.org/TR/2001/REC-SVG-20010904/DTD/svg10.dtd">
<svg version="1.0" xmlns="http://www.w3.org/2000/svg"
 width="512.000000pt" height="512.000000pt" viewBox="0 0 512.000000 512.000000"
 preserveAspectRatio="xMidYMid meet">

<g transform="translate(0.000000,512.000000) scale(0.100000,-0.100000)"
fill="#000000" stroke="none">
<path d="M1840 5110 c-640 -47 -1229 -403 -1555 -940 -134 -220 -219 -451
-261 -710 -22 -130 -24 -426 -5 -555 47 -320 175 -629 370 -895 126 -172 390
-404 590 -520 705 -407 1615 -345 2248 152 l64 51 202 -199 c664 -654 1511
-1479 1521 -1482 6 -1 32 19 58 45 l48 48 -593 580 c-325 318 -713 698 -860
843 l-269 264 64 66 c258 269 437 639 499 1032 20 124 17 458 -5 585 -70 411
-249 757 -546 1055 -408 411 -982 623 -1570 580z m397 -155 c537 -71 1019
-374 1309 -821 268 -415 352 -919 233 -1399 -137 -552 -552 -1023 -1089 -1235
-609 -240 -1291 -155 -1805 226 -463 343 -735 874 -735 1437 0 916 684 1676
1616 1796 113 14 345 12 471 -4z"/>
</g>
</svg>
