<svg version="1.2" xmlns="http://www.w3.org/2000/svg" viewBox="0 0 512 512" width="512" height="512"><style>.a{fill:#fefefe}</style><path fill-rule="evenodd" class="a" d="m211 2.3c40.7 7 77.4 27.3 104.4 57.7 58.6 66.1 60.2 164.2 3.7 232.5l-4.1 5 95.9 96c86.4 86.4 96 96.4 96.7 99.8 1.9 10.9-7.4 20.2-18.3 18.3-3.4-0.7-13.5-10.4-100.3-97l-96.5-96.3-8 5.8c-10.1 7.4-19.8 12.7-33 18.4-47.8 20.4-101.7 18.6-149-5-44.9-22.4-78.9-63.8-92-112-13.4-49-5.1-102.4 22.2-144 6.7-10.1 18.6-24.7 25.9-31.6 29-27.4 64.3-43.9 104.4-48.9 10.1-1.2 37.5-0.5 48 1.3zm-52.5 30.1c-17.1 3.3-28.2 7-43.5 14.6-39.3 19.6-67.8 57-77.6 102-2.7 12-2.7 45.7-0.1 58 6.4 30.1 19.3 53.8 41.1 75.6 21.4 21.2 42.8 33.1 72.3 40 10.7 2.5 13.6 2.8 31.3 2.8 16.4 0 21.1-0.3 29.7-2.2 58.5-12.7 102.8-57.1 115.5-115.5 3-13.8 3.2-43.7 0.4-56.7-6.8-31.6-19.1-54.5-41-76.6-21.5-21.5-44.9-34.3-74.6-40.9-10.2-2.3-43.7-3-53.5-1.1z"/></svg>