<?xml version="1.0" standalone="no"?>
<!DOCTYPE svg PUBLIC "-//W3C//DTD SVG 20010904//EN"
 "http://www.w3.org/TR/2001/REC-SVG-20010904/DTD/svg10.dtd">
<svg version="1.0" xmlns="http://www.w3.org/2000/svg"
 width="512.000000pt" height="512.000000pt" viewBox="0 0 512.000000 512.000000"
 preserveAspectRatio="xMidYMid meet">

<g transform="translate(0.000000,512.000000) scale(0.100000,-0.100000)"
fill="#000000" stroke="none">
<path d="M2283 4948 c-12 -6 -25 -18 -29 -27 -4 -9 -26 -121 -48 -250 l-41
-234 -115 -31 c-63 -18 -151 -47 -195 -64 l-80 -32 -170 169 c-101 101 -181
172 -196 176 -36 9 -50 0 -278 -167 -146 -107 -197 -150 -204 -172 -9 -26 3
-55 119 -285 141 -279 151 -292 213 -270 35 12 51 35 51 73 0 15 -45 116 -100
226 -55 110 -100 204 -100 208 0 5 61 53 135 106 l136 98 158 -151 c87 -83
164 -158 171 -166 19 -23 71 -18 144 15 92 42 223 85 330 109 51 11 97 27 107
38 14 13 28 76 56 248 l39 230 174 0 174 0 39 -230 c27 -165 43 -235 55 -247
9 -10 78 -33 152 -51 74 -19 180 -53 235 -77 169 -72 146 -79 346 111 94 90
175 164 180 164 13 0 269 -187 269 -197 0 -4 -45 -98 -100 -208 -59 -118 -100
-212 -100 -229 0 -23 15 -47 61 -98 75 -84 164 -206 214 -295 21 -36 49 -72
61 -79 19 -10 62 -6 241 20 120 18 225 34 234 37 12 3 26 -29 67 -154 29 -88
52 -163 52 -168 0 -5 -94 -58 -209 -117 -242 -125 -237 -120 -221 -237 12 -96
12 -264 0 -360 -16 -117 -21 -112 221 -237 115 -59 209 -112 209 -117 0 -5
-23 -80 -52 -168 -41 -125 -55 -157 -67 -154 -9 3 -114 19 -234 37 -179 26
-222 30 -241 20 -12 -7 -40 -43 -61 -79 -50 -89 -139 -211 -214 -295 -46 -51
-61 -75 -61 -98 0 -17 41 -111 100 -229 55 -110 100 -204 100 -208 0 -10 -256
-197 -269 -197 -5 0 -86 74 -180 164 -199 190 -177 183 -346 111 -55 -24 -161
-58 -235 -77 -74 -18 -143 -41 -152 -51 -12 -12 -28 -82 -55 -247 l-39 -230
-174 0 -174 0 -39 230 c-27 165 -43 235 -55 247 -9 9 -79 33 -155 52 -75 20
-181 54 -235 77 -166 71 -144 78 -343 -112 -94 -90 -175 -164 -180 -164 -13 0
-269 187 -269 197 0 4 45 98 100 208 59 118 100 212 100 229 0 23 -15 47 -61
98 -75 84 -164 206 -214 295 -21 36 -49 72 -61 79 -19 10 -61 6 -241 -20 -120
-18 -225 -34 -234 -37 -12 -3 -26 29 -67 154 -29 88 -52 163 -52 168 0 5 94
58 209 117 242 125 237 120 221 237 -12 96 -12 264 0 360 16 117 21 112 -221
237 -115 59 -209 112 -209 117 0 5 23 80 52 168 41 125 55 157 67 154 9 -3
114 -19 234 -37 176 -26 222 -30 240 -20 28 15 147 212 147 243 0 58 -68 95
-115 64 -14 -9 -43 -46 -66 -81 -27 -43 -47 -65 -60 -65 -10 0 -109 14 -219
30 -243 36 -260 37 -287 8 -20 -23 -173 -480 -173 -517 0 -35 35 -59 240 -165
l204 -105 1 -211 0 -211 -205 -105 c-207 -107 -240 -130 -240 -166 0 -38 153
-493 173 -516 27 -29 51 -29 288 8 106 16 203 30 215 30 14 0 37 -26 81 -93
34 -51 88 -124 121 -162 l59 -70 -110 -221 c-98 -197 -109 -224 -100 -250 7
-22 59 -65 204 -172 228 -167 242 -176 278 -167 15 4 95 75 196 176 l170 169
80 -32 c44 -17 132 -46 195 -64 l115 -31 41 -234 c22 -129 44 -241 48 -250 15
-34 53 -39 306 -39 253 0 291 5 306 39 4 9 26 121 48 250 l41 234 115 31 c63
18 151 47 195 64 l80 32 170 -169 c93 -93 180 -172 192 -175 34 -11 75 13 282
166 145 106 197 150 204 172 9 26 -2 53 -100 250 l-110 221 58 69 c32 38 87
111 121 163 45 69 67 93 83 93 12 0 109 -13 216 -30 231 -35 260 -37 283 -11
18 20 162 438 172 501 4 26 1 41 -13 57 -10 12 -110 69 -223 127 l-205 106 0
210 0 209 205 106 c207 107 240 131 240 167 0 38 -153 493 -173 516 -27 29
-49 28 -286 -8 -107 -17 -204 -30 -216 -30 -16 0 -37 24 -82 93 -34 51 -88
124 -121 162 l-59 70 110 221 c97 197 109 224 100 250 -7 22 -59 65 -204 172
-226 166 -242 176 -278 167 -15 -4 -95 -75 -196 -176 l-170 -169 -80 32 c-44
17 -132 46 -195 64 l-115 31 -41 234 c-22 129 -44 241 -48 250 -15 34 -52 39
-309 38 -155 0 -260 -4 -274 -11z"/>
<path d="M2396 3829 c-676 -87 -1176 -713 -1108 -1387 58 -571 465 -1020 1032
-1138 117 -25 364 -25 477 -1 122 26 212 56 234 78 27 27 25 80 -5 108 -29 27
-43 26 -191 -13 -135 -37 -320 -45 -454 -22 -492 86 -860 464 -932 956 -16
109 -6 300 21 409 103 420 430 740 855 838 120 27 369 25 488 -5 424 -106 732
-414 840 -841 18 -72 21 -113 21 -256 0 -150 -4 -181 -26 -267 -35 -130 -83
-236 -158 -352 -49 -76 -61 -101 -56 -121 10 -38 42 -65 77 -65 40 0 77 38
142 147 311 520 224 1168 -215 1589 -274 263 -663 391 -1042 343z"/>
<path d="M2425 3184 c-244 -52 -438 -249 -489 -497 -20 -96 -20 -158 0 -255
62 -307 350 -529 659 -509 267 18 492 192 571 441 62 198 31 401 -89 568 -148
206 -403 304 -652 252z m250 -159 c256 -67 415 -329 350 -578 -67 -258 -329
-417 -580 -352 -87 23 -167 70 -229 134 -181 191 -181 471 0 662 119 124 296
176 459 134z"/>
<path d="M3243 1668 c-55 -27 -50 -114 8 -138 89 -37 151 99 63 139 -30 13
-42 13 -71 -1z"/>
</g>
</svg>
