<?xml version="1.0" standalone="no"?>
<!DOCTYPE svg PUBLIC "-//W3C//DTD SVG 20010904//EN"
 "http://www.w3.org/TR/2001/REC-SVG-20010904/DTD/svg10.dtd">
<svg version="1.0" xmlns="http://www.w3.org/2000/svg"
 width="512.000000pt" height="512.000000pt" viewBox="0 0 512.000000 512.000000"
 preserveAspectRatio="xMidYMid meet">

<g transform="translate(0.000000,512.000000) scale(0.100000,-0.100000)"
fill="#000000" stroke="none">
<path d="M2109 5104 c-59 -18 -131 -81 -161 -142 -22 -44 -23 -62 -28 -277
l-5 -229 -105 -44 c-58 -24 -113 -46 -123 -49 -14 -4 -57 33 -171 145 -174
173 -210 196 -316 196 -113 0 -131 -13 -451 -333 -320 -320 -333 -338 -333
-451 0 -106 23 -142 196 -316 112 -114 149 -157 145 -171 -3 -10 -25 -65 -49
-123 l-44 -105 -229 -5 c-264 -6 -291 -13 -365 -97 -68 -77 -70 -94 -70 -543
0 -449 2 -466 70 -543 74 -84 101 -91 365 -97 l229 -5 44 -105 c24 -58 46
-113 49 -123 4 -14 -33 -57 -145 -171 -173 -174 -196 -210 -196 -316 0 -113
13 -131 333 -451 316 -316 337 -332 445 -333 109 -2 142 18 318 192 117 115
161 153 175 149 51 -15 219 -90 225 -100 4 -7 8 -102 8 -213 0 -249 8 -283 84
-360 84 -83 89 -84 556 -84 449 0 466 2 543 70 84 74 91 101 97 365 l5 229
105 44 c58 24 113 46 123 49 14 4 57 -33 171 -145 174 -173 210 -196 316 -196
117 0 132 11 451 332 319 321 333 339 333 452 1 104 -22 141 -195 316 -111
112 -150 158 -146 171 15 51 90 219 100 225 7 4 102 8 213 8 249 0 283 8 360
84 83 84 84 89 84 556 0 449 -2 466 -70 543 -74 84 -101 91 -365 97 l-229 5
-44 105 c-24 58 -46 113 -49 123 -4 14 33 57 145 171 173 174 196 210 196 316
0 113 -13 131 -333 452 -320 321 -335 332 -451 332 -106 0 -142 -23 -316 -196
-114 -112 -157 -149 -171 -145 -10 3 -65 25 -123 49 l-105 44 -5 229 c-5 215
-6 233 -28 277 -31 63 -102 124 -165 143 -72 21 -829 21 -898 -1z m839 -237
c7 -7 12 -99 14 -237 l3 -225 30 -54 c40 -72 80 -103 199 -151 190 -78 207
-83 267 -77 88 8 132 37 295 198 83 82 157 149 164 149 18 0 538 -518 546
-543 5 -15 -29 -54 -145 -171 -175 -177 -196 -211 -195 -321 1 -58 7 -84 37
-150 19 -44 45 -105 56 -135 27 -72 67 -119 132 -155 l54 -30 225 -3 c138 -2
230 -7 237 -14 19 -15 19 -761 0 -776 -7 -7 -99 -12 -237 -14 l-225 -3 -54
-30 c-72 -40 -103 -80 -151 -199 -78 -190 -83 -207 -77 -267 8 -88 37 -132
198 -295 82 -83 149 -157 149 -165 0 -18 -531 -549 -549 -549 -8 0 -82 67
-165 149 -163 160 -208 190 -295 198 -60 6 -77 1 -267 -77 -119 -48 -159 -79
-199 -151 l-30 -54 -3 -225 c-2 -138 -7 -230 -14 -237 -15 -19 -761 -19 -776
0 -7 7 -12 99 -14 237 l-3 225 -30 54 c-40 72 -80 103 -199 151 -190 78 -207
83 -267 77 -88 -8 -132 -37 -295 -198 -83 -82 -157 -149 -165 -149 -18 0 -549
531 -549 549 0 8 67 82 149 165 160 163 190 208 198 295 6 60 1 77 -77 267
-48 119 -79 159 -151 199 l-54 30 -225 3 c-138 2 -230 7 -237 14 -19 15 -19
761 0 776 7 7 99 12 237 14 l225 3 54 30 c72 40 103 80 151 199 78 190 83 207
77 267 -8 88 -37 132 -198 295 -82 83 -149 157 -149 165 0 18 531 549 549 549
8 0 82 -67 165 -149 163 -160 208 -190 295 -198 60 -6 77 -1 267 77 119 48
159 79 199 151 l30 54 3 225 c2 138 7 230 14 237 8 10 95 13 388 13 293 0 380
-3 388 -13z"/>
<path d="M2387 3544 c-203 -37 -390 -134 -533 -279 -201 -203 -305 -472 -291
-750 28 -521 431 -924 952 -952 488 -25 918 310 1026 802 22 98 17 323 -8 425
-87 343 -332 610 -660 719 -147 49 -333 63 -486 35z m368 -249 c82 -22 208
-86 277 -140 119 -93 224 -255 264 -405 25 -91 25 -291 1 -380 -59 -213 -209
-397 -402 -490 -123 -60 -190 -74 -335 -74 -146 0 -215 16 -336 75 -465 228
-567 847 -199 1214 107 108 231 176 381 209 84 19 260 14 349 -9z"/>
</g>
</svg>
