<?xml version="1.0" standalone="no"?>
<!DOCTYPE svg PUBLIC "-//W3C//DTD SVG 20010904//EN"
 "http://www.w3.org/TR/2001/REC-SVG-20010904/DTD/svg10.dtd">
<svg version="1.0" xmlns="http://www.w3.org/2000/svg"
 width="512.000000pt" height="512.000000pt" viewBox="0 0 512.000000 512.000000"
 preserveAspectRatio="xMidYMid meet">

<g transform="translate(0.000000,512.000000) scale(0.100000,-0.100000)"
fill="#000000" stroke="none">
<path d="M1280 4480 l0 -110 1280 0 1280 0 0 110 0 110 -1280 0 -1280 0 0
-110z"/>
<path d="M850 3945 l0 -105 1710 0 1710 0 0 105 0 105 -1710 0 -1710 0 0 -105z"/>
<path d="M565 3511 c-90 -22 -172 -90 -215 -176 l-25 -50 0 -1255 0 -1255 24
-53 c31 -68 113 -144 183 -169 51 -17 138 -18 2028 -18 1890 0 1977 1 2028 18
70 25 152 101 183 169 l24 53 0 1255 0 1255 -34 63 c-37 69 -79 109 -151 144
l-45 23 -1985 2 c-1092 0 -1998 -2 -2015 -6z m3960 -217 c69 -32 65 46 65
-1263 0 -1273 2 -1228 -51 -1265 -21 -15 -187 -16 -1979 -16 -1792 0 -1958 1
-1979 16 -53 37 -51 -8 -51 1265 0 1306 -4 1230 63 1263 29 14 230 16 1965 16
1741 0 1937 -2 1967 -16z"/>
<path d="M2081 2867 c-52 -30 -50 -6 -51 -843 0 -768 0 -782 20 -807 30 -38
80 -52 122 -33 18 7 276 184 573 393 480 337 541 382 553 415 30 77 35 72
-571 497 -577 403 -589 410 -646 378z m532 -559 c199 -139 369 -260 380 -268
17 -14 -7 -33 -355 -276 -205 -143 -379 -264 -385 -268 -10 -6 -13 103 -13
528 0 295 3 536 6 536 4 0 169 -114 367 -252z"/>
</g>
</svg>
