<svg version="1.2" xmlns="http://www.w3.org/2000/svg" viewBox="0 0 512 512" width="512" height="512"><style>.a{fill:#fff}</style><path fill-rule="evenodd" class="a" d="m255.6 8.1c195-0.1 199.2-0.1 206.8 1.9 27.8 7.1 47.6 31.4 49.3 60.5 0.7 11.7-1.4 21.4-6.8 32.5-5.6 11.4-17.8 23.7-28.9 29.3-15.8 7.8 3.4 7.2-220 7.2-223.3 0-204.1 0.6-220-7.2-11-5.5-23.3-17.9-28.9-29.3-5.4-11.1-7.5-20.8-6.8-32.5 1.7-28.9 21.3-53.3 48.9-60.5 7.1-1.8 13.8-1.9 206.4-1.9zm199.9 31.4l-198-0.2c-157.1-0.1-198.8 0.1-202 1.1-9.2 2.9-16.9 9.9-21.4 19.6-2.2 4.6-2.6 6.9-2.6 14 0 7.3 0.4 9.3 2.8 14.2 3.7 7.5 9.8 13.4 17.7 17.2l6.5 3.1h395l6.5-3.1c7.9-3.8 14-9.7 17.7-17.2 2.3-4.8 2.7-7 2.8-14.2 0-7.2-0.4-9.4-2.7-14.2-3.5-7.6-9.8-14.2-16.7-17.5z"/><path fill-rule="evenodd" class="a" d="m258 194.3l200.5 0.2 8.2 2.8c25.8 8.7 43.5 32 45 59.2 1.8 31.4-19.6 59.8-50.7 67.6-8.2 2.1-401.8 2.1-410 0-31.1-7.8-52.5-36.2-50.7-67.6 1.1-20.2 11.1-38.6 27.2-50 7.5-5.4 13.1-7.9 22.7-10.5 7.1-1.8 13.4-1.9 207.8-1.7zm196.5 31.2l-197-0.2c-160.9-0.1-197.8 0.1-201.2 1.1-10.2 3.2-17.6 9.7-22.2 19.6-3.5 7.4-3.6 20-0.3 27.3 3 6.8 7.4 12 13 15.5 10.2 6.6-3 6.2 209.2 6.2 212.2 0 199 0.4 209.2-6.2 5.6-3.5 10-8.7 13-15.5 1.7-3.7 2.2-6.8 2.3-13.3 0-7.7-0.3-9.2-3.3-15.2-3.8-7.7-9.2-13-17.1-16.7z"/><path fill-rule="evenodd" class="a" d="m259.5 372.4c220.3 0.1 200.4-0.5 216.5 7.3 10.9 5.3 23.2 17.7 28.9 29.3 5.4 11.1 7.5 20.8 6.8 32.5-1.7 29.1-21.5 53.4-49.3 60.5-7.6 2-11.5 2-206.4 2-194.5 0-198.8 0-206.4-2-27.8-7.1-47.6-31.4-49.3-60.5-1-18.2 5.2-34.8 18.2-48.4 10.9-11.4 23.2-17.9 37.7-20 3.6-0.5 89.7-0.8 203.3-0.7zm194 31.1l-194.5-0.1c-107-0.1-196.6 0.2-199.1 0.6-10.5 1.8-20.6 9.7-25.6 19.8-2.4 4.9-2.8 6.9-2.8 14.2 0 7.1 0.4 9.4 2.7 14.2 3.5 7.5 9.4 13.8 16.5 17.4l5.8 2.9h399l5.8-2.9c7-3.6 13-9.9 16.5-17.4 2.3-4.8 2.7-7 2.7-14.2-0.1-7.2-0.5-9.4-2.8-14.2-3.7-7.5-9.8-13.4-17.7-17.2z"/></svg>