<?xml version="1.0" standalone="no"?>
<!DOCTYPE svg PUBLIC "-//W3C//DTD SVG 20010904//EN"
 "http://www.w3.org/TR/2001/REC-SVG-20010904/DTD/svg10.dtd">
<svg version="1.0" xmlns="http://www.w3.org/2000/svg"
 width="512.000000pt" height="512.000000pt" viewBox="0 0 512.000000 512.000000"
 preserveAspectRatio="xMidYMid meet">

<g transform="translate(0.000000,512.000000) scale(0.100000,-0.100000)"
fill="#000000" stroke="none">
<path d="M0 2765 l0 -1635 2560 0 2560 0 0 1635 0 1635 -2560 0 -2560 0 0
-1635z m4915 0 l0 -1430 -2355 0 -2355 0 -3 1420 c-1 781 0 1426 3 1433 3 10
480 12 2357 10 l2353 -3 0 -1430z"/>
<path d="M2544 3784 c-5 -1 -21 -5 -35 -8 -14 -3 -31 -17 -37 -31 -9 -19 -12
-190 -12 -628 -1 -331 -5 -621 -9 -645 -10 -53 -43 -89 -90 -101 -20 -5 -88
-14 -152 -20 -233 -20 -330 -88 -359 -249 -20 -114 10 -215 83 -277 50 -43
112 -63 240 -77 248 -28 404 51 470 237 7 19 13 247 17 648 5 595 6 619 24
633 41 29 154 -1 326 -88 146 -74 232 -98 346 -98 59 0 68 3 95 30 l30 30 -3
201 c-4 243 2 233 -140 244 -150 11 -208 27 -442 124 -54 23 -128 48 -165 56
-63 13 -166 24 -187 19z"/>
<path d="M1084 910 c-56 -23 -72 -108 -30 -157 l24 -28 1469 -2 c1161 -2 1473
0 1493 10 14 7 32 27 42 45 19 39 11 84 -22 117 -20 20 -26 20 -1488 22 -814
1 -1477 -2 -1488 -7z"/>
</g>
</svg>
